Team:-HKRG 
Uploader:-Abhinav4u

INFO:-
Format : Matroska
File size : 2.51 GiB
Duration : 2h 45mn
Overall bit rate : 2 180 Kbps
Movie name : Bad Boys 2 2003 720p BD-Rip Dual Audio [Hindi-Eng]~Abhinav4u~ {HKRG}

Video Info:-

Format : AVC
Format/Info : Advanced Video Codec
Codec ID : V_MPEG4/ISO/AVC
Bit rate : 1 625 Kbps
Nominal bit rate : 2 222 Kbps
Width : 1 280 pixels
Height : 704 pixels
Display aspect ratio : 16:9
Frame rate : 23.976 fps
Stream size : 1.87 GiB (75%)
Title : Ripper::~Abhinav4u~ @Team HKRG


Audio #1
Format : AC-3
Format/Info : Audio Coding 3
Bit rate : 384 Kbps
Channel(s) : 6 channels
Channel positions : Front: L C R, Side: L R, LFE
Sampling rate : 48.0 KHz
Bit depth : 16 bits
Compression mode : Lossy
Stream size : 454 MiB (18%)
Title : ~Abhinav4u~
Language : English

Audio #2
Format : AC-3
Format/Info : Audio Coding 3
Bit rate : 128 Kbps
Channel(s) : 2 channels
Channel positions : Front: L R
Sampling rate : 48.0 KHz
Stream size : 151 MiB (6%)
Title : ~Abhinav4u~
Language : Hindi

Sample Included in the Rip..